<?xml version="1.0" encoding="UTF-8"?>
<svg width="1000" height="1200" viewBox="0 0 1000 1200" xmlns="http://www.w3.org/2000/svg">
  <!-- Styles -->
  <style>
    .box { fill: #003366; stroke: #F5A623; stroke-width: 2; rx: 10; ry: 10; }
    .alt-box { fill: #222222; stroke: #F5A623; stroke-width: 2; rx: 10; ry: 10; }
    .decision { fill: #003366; stroke: #F5A623; stroke-width: 2; }
    .text { fill: #F5A623; font-family: Arial, sans-serif; font-size: 14px; text-anchor: middle; dominant-baseline: middle; }
    .white-text { fill: white; font-family: Arial, sans-serif; font-size: 14px; text-anchor: middle; dominant-baseline: middle; }
    .title-text { fill: #F5A623; font-family: Arial, sans-serif; font-size: 18px; font-weight: bold; text-anchor: middle; dominant-baseline: middle; }
    .small-text { fill: #F5A623; font-family: Arial, sans-serif; font-size: 12px; text-anchor: middle; dominant-baseline: middle; }
    .arrow { stroke: #F5A623; stroke-width: 2; fill: none; marker-end: url(#arrowhead); }
    .dashed-arrow { stroke: #F5A623; stroke-width: 2; fill: none; marker-end: url(#arrowhead); stroke-dasharray: 5,5; }
  </style>
  
  <!-- Arrow Marker Definition -->
  <defs>
    <marker id="arrowhead" markerWidth="10" markerHeight="7" refX="9" refY="3.5" orient="auto">
      <polygon points="0 0, 10 3.5, 0 7" fill="#F5A623" />
    </marker>
  </defs>
  
  <!-- Title -->
  <text x="500" y="40" class="title-text">msuStudySyncAI User Flow Diagram</text>
  
  <!-- User Start -->
  <rect x="425" y="80" width="150" height="50" class="box" />
  <text x="500" y="105" class="text">User Login / Register</text>
  
  <!-- Main Dashboard -->
  <rect x="425" y="180" width="150" height="50" class="box" />
  <text x="500" y="205" class="text">Main Dashboard</text>
  
  <!-- Navigation Options -->
  <rect x="175" y="280" width="140" height="50" class="alt-box" />
  <text x="245" y="305" class="text">Chat Interface</text>
  
  <rect x="345" y="280" width="140" height="50" class="alt-box" />
  <text x="415" y="305" class="text">Program Overview</text>
  
  <rect x="515" y="280" width="140" height="50" class="alt-box" />
  <text x="585" y="305" class="text">Study Schedule</text>
  
  <rect x="685" y="280" width="140" height="50" class="alt-box" />
  <text x="755" y="305" class="text">Profile Settings</text>
  
  <!-- Chat Interface Expanded -->
  <rect x="175" y="380" width="140" height="140" class="box" />
  <text x="245" y="410" class="text">Chat Interface</text>
  <text x="245" y="435" class="small-text">- Ask Questions</text>
  <text x="245" y="455" class="small-text">- Upload Files</text>
  <text x="245" y="475" class="small-text">- Voice Output</text>
  <text x="245" y="495" class="small-text">- View History</text>
  
  <!-- Program Overview Expanded -->
  <rect x="345" y="380" width="140" height="140" class="box" />
  <text x="415" y="410" class="text">Program Overview</text>
  <text x="415" y="435" class="small-text">- Curriculum</text>
  <text x="415" y="455" class="small-text">- Requirements</text>
  <text x="415" y="475" class="small-text">- Advisors</text>
  <text x="415" y="495" class="small-text">- Grad Programs</text>
  
  <!-- Study Schedule Expanded -->
  <rect x="515" y="380" width="140" height="140" class="box" />
  <text x="585" y="410" class="text">Study Schedule</text>
  <text x="585" y="435" class="small-text">- Create Schedule</text>
  <text x="585" y="455" class="small-text">- AI Recommendations</text>
  <text x="585" y="475" class="small-text">- Deadline Tracking</text>
  <text x="585" y="495" class="small-text">- Study Groups</text>
  
  <!-- Profile/Settings Expanded -->
  <rect x="685" y="380" width="140" height="140" class="box" />
  <text x="755" y="410" class="text">Profile Settings</text>
  <text x="755" y="435" class="small-text">- Update Profile</text>
  <text x="755" y="455" class="small-text">- Set Preferences</text>
  <text x="755" y="475" class="small-text">- TTS Settings</text>
  <text x="755" y="495" class="small-text">- Theme Options</text>
  
  <!-- File Upload Flow -->
  <rect x="175" y="580" width="140" height="50" class="alt-box" />
  <text x="245" y="605" class="text">File Upload</text>
  
  <path d="M 245 630 L 245 680" class="arrow" />
  
  <rect x="175" y="680" width="140" height="50" class="box" />
  <text x="245" y="705" class="text">Upload Dialog</text>
  
  <path d="M 245 730 L 245 780" class="arrow" />
  
  <rect x="175" y="780" width="140" height="50" class="box" />
  <text x="245" y="805" class="text">Knowledge Extraction</text>
  
  <path d="M 245 830 L 245 880" class="arrow" />
  
  <rect x="175" y="880" width="140" height="50" class="box" />
  <text x="245" y="905" class="text">AI Response</text>
  
  <!-- Study Schedule Flow -->
  <rect x="515" y="580" width="140" height="50" class="alt-box" />
  <text x="585" y="605" class="text">Schedule Creation</text>
  
  <path d="M 585 630 L 585 680" class="arrow" />
  
  <rect x="515" y="680" width="140" height="50" class="box" />
  <text x="585" y="705" class="text">Input Deadlines</text>
  
  <path d="M 585 730 L 585 780" class="arrow" />
  
  <rect x="515" y="780" width="140" height="50" class="box" />
  <text x="585" y="805" class="text">AI Generated Plan</text>
  
  <path d="M 585 830 L 585 880" class="arrow" />
  
  <rect x="515" y="880" width="140" height="50" class="box" />
  <text x="585" y="905" class="text">Calendar View</text>
  
  <!-- Program Info Flow -->
  <rect x="345" y="580" width="140" height="50" class="alt-box" />
  <text x="415" y="605" class="text">Program Info</text>
  
  <path d="M 415 630 L 415 680" class="arrow" />
  
  <rect x="345" y="680" width="140" height="50" class="box" />
  <text x="415" y="705" class="text">Browse Categories</text>
  
  <path d="M 415 730 L 415 780" class="arrow" />
  
  <rect x="345" y="780" width="140" height="50" class="box" />
  <text x="415" y="805" class="text">View Details</text>
  
  <path d="M 415 830 L 415 880" class="arrow" />
  
  <rect x="345" y="880" width="140" height="50" class="box" />
  <text x="415" y="905" class="text">AI Explanations</text>
  
  <!-- Study Group Flow -->
  <rect x="685" y="580" width="140" height="50" class="alt-box" />
  <text x="755" y="605" class="text">Study Groups</text>
  
  <path d="M 755 630 L 755 680" class="arrow" />
  
  <rect x="685" y="680" width="140" height="50" class="box" />
  <text x="755" y="705" class="text">Find/Create Group</text>
  
  <path d="M 755 730 L 755 780" class="arrow" />
  
  <rect x="685" y="780" width="140" height="50" class="box" />
  <text x="755" y="805" class="text">Join Discussion</text>
  
  <path d="M 755 830 L 755 880" class="arrow" />
  
  <rect x="685" y="880" width="140" height="50" class="box" />
  <text x="755" y="905" class="text">Share Resources</text>
  
  <!-- Connecting Arrows -->
  <path d="M 500 130 L 500 180" class="arrow" />
  
  <path d="M 500 230 L 500 260 L 245 260 L 245 280" class="arrow" />
  <path d="M 500 230 L 500 260 L 415 260 L 415 280" class="arrow" />
  <path d="M 500 230 L 500 260 L 585 260 L 585 280" class="arrow" />
  <path d="M 500 230 L 500 260 L 755 260 L 755 280" class="arrow" />
  
  <path d="M 245 330 L 245 380" class="arrow" />
  <path d="M 415 330 L 415 380" class="arrow" />
  <path d="M 585 330 L 585 380" class="arrow" />
  <path d="M 755 330 L 755 380" class="arrow" />
  
  <path d="M 245 520 L 245 580" class="arrow" />
  <path d="M 415 520 L 415 580" class="arrow" />
  <path d="M 585 520 L 585 580" class="arrow" />
  <path d="M 755 520 L 755 580" class="arrow" />
  
  <!-- Cross-interactions -->
  <path d="M 315 450 L 345 450" class="dashed-arrow" />
  <path d="M 485 450 L 515 450" class="dashed-arrow" />
  <path d="M 655 450 L 685 450" class="dashed-arrow" />
  
  <path d="M 315 830 L 345 830" class="dashed-arrow" />
  <path d="M 485 830 L 515 830" class="dashed-arrow" />
  <path d="M 655 830 L 685 830" class="dashed-arrow" />
  
  <!-- Legend -->
  <rect x="50" y="1050" width="20" height="20" class="box" />
  <text x="80" y="1060" class="small-text" text-anchor="start">Primary Flow</text>
  
  <rect x="50" y="1080" width="20" height="20" class="alt-box" />
  <text x="80" y="1090" class="small-text" text-anchor="start">Section Navigation</text>
  
  <line x1="50" y1="1120" x2="90" y2="1120" class="arrow" />
  <text x="140" y="1120" class="small-text" text-anchor="start">Direct Flow</text>
  
  <line x1="50" y1="1150" x2="90" y2="1150" class="dashed-arrow" />
  <text x="140" y="1150" class="small-text" text-anchor="start">Optional Interaction</text>
</svg>